<svg width="252" height="203" viewBox="0 0 252 203" fill="none" xmlns="http://www.w3.org/2000/svg">
<path d="M250.7 29.4C233.9 42.4666 220.833 55.7666 211.5 69.3C202.633 82.3667 198.2 94.7333 198.2 106.4C200.067 105.467 202.4 105 205.2 105C208.467 104.533 211.267 104.3 213.6 104.3C224.333 104.3 233.2 108.733 240.2 117.6C247.667 126 251.4 136.5 251.4 149.1C251.4 164.5 246.267 177.333 236 187.6C225.733 197.867 212.9 203 197.5 203C181.167 203 168.333 197.167 159 185.5C149.667 173.367 145 157.267 145 137.2C145 113.4 152.233 89.8333 166.7 66.5C181.167 43.1667 202.4 21 230.4 -3.00407e-05L250.7 29.4ZM106.5 29.4C89.7 42.4666 76.6333 55.7666 67.3 69.3C58.4333 82.3667 54 94.7333 54 106.4C55.8667 105.467 58.2 105 61 105C64.2667 104.533 67.0667 104.3 69.4 104.3C80.1333 104.3 89 108.733 96 117.6C103.467 126 107.2 136.5 107.2 149.1C107.2 164.5 102.067 177.333 91.8 187.6C81.5333 197.867 68.7 203 53.3 203C36.9667 203 24.1333 197.167 14.8 185.5C5.46667 173.367 0.800002 157.267 0.800002 137.2C0.800002 113.4 8.03334 89.8333 22.5 66.5C36.9667 43.1667 58.2 21 86.2 -3.00407e-05L106.5 29.4Z" fill="#DFCCAC"/>
</svg>
